<svg id="balon" xmlns="http://www.w3.org/2000/svg" viewBox="0 0 319.14 226.54"><defs><style>.cls-1,.cls-13,.cls-14,.cls-15,.cls-16,.cls-17,.cls-18,.cls-4,.cls-8{fill:none;stroke-miterlimit:10;}.cls-1{stroke:#a2862e;stroke-width:10px;}.cls-1,.cls-14,.cls-15,.cls-16,.cls-4{stroke-linecap:round;}.cls-2{fill:#723182;}.cls-3{fill:#391841;}.cls-4,.cls-8{stroke:#e8c042;}.cls-4{stroke-width:9px;}.cls-19,.cls-5{fill:#e01962;}.cls-20,.cls-6{fill:#e8c042;}.cls-7{fill:#50225b;opacity:0.52;}.cls-9{fill:#fff;}.cls-10{fill:#f5caff;}.cls-11{fill:#f4c7ff;}.cls-12{fill:#fbe9ff;}.cls-13,.cls-14,.cls-15,.cls-18{stroke:#fff;}.cls-13,.cls-14{stroke-width:0.5px;}.cls-15{stroke-width:0.53px;}.cls-16{stroke:#ffecb6;}.cls-17{stroke:#e01962;}.cls-18{stroke-width:2px;}.cls-19{font-size:40px;font-family:Bodoni MT;font-weight:700;}.cls-20{font-size:27px;font-family:Hack Nerd Font Mono;}</style></defs><title>logo_definitivo</title><path class="cls-1" d="M240.21,398.54c-37.7-11.49-50.94-44.19-53.51-51.64-0.24-.7-0.54-1.37-0.8-2.06-2.17-5.54-5.08-49.32,3.81-53a51.15,51.15,0,0,1,18.89-3.53m32.05,110.22c37.7-11.49,50.94-44.19,53.51-51.64,0.24-.7.54-1.37,0.8-2.06,2.17-5.54,5.08-49.32-3.81-53a53.48,53.48,0,0,0-19.51-3.53" transform="translate(-84.39 -241.46)"/><path class="cls-2" d="M191.37,286.77c-2.17,3.17-8.58,41.55-8.58,41.55l15.84,34.85L228.47,388l13.06,4.28L270.87,377l23.5-32.5,2-36.67-5.23-21.79L271.35,284h-70.8Z" transform="translate(-84.39 -241.46)"/><path class="cls-3" d="M191.71,288s-17.23,68.34,48.94,99l-5.27,3.21-34.74-29.13-13.54-27.9L186,306.87Z" transform="translate(-84.39 -241.46)"/><path class="cls-3" d="M290.35,290.71s14.61,66.81-51.56,97.47l8.05,3.08,34.74-29.13,13.54-27.9,1.07-26.35Z" transform="translate(-84.39 -241.46)"/><path class="cls-4" d="M240.21,392.54c-37.7-11.49-50.94-44.19-53.51-51.64-0.24-.7-0.54-1.37-0.8-2.06-2.17-5.54-5.08-49.32,3.81-53a51.15,51.15,0,0,1,18.89-3.53m32.05,110.22c37.7-11.49,50.94-44.19,53.51-51.64,0.24-.7.54-1.37,0.8-2.06,2.17-5.54,5.08-49.32-3.81-53a53.48,53.48,0,0,0-19.51-3.53" transform="translate(-84.39 -241.46)"/><path class="cls-5" d="M200.93,265.49s-0.92,13.57,5.23,16.23,3.71-4.31,3.71-4.31l-4.64-7-1.44-2.17Z" transform="translate(-84.39 -241.46)"/><path class="cls-5" d="M278.29,265.49s0.92,13.57-5.23,16.23-3.71-4.31-3.71-4.31Z" transform="translate(-84.39 -241.46)"/><path class="cls-2" d="M280.5,262.79l-2.65,2.36a3.5,3.5,0,1,0,5.07-4.71Z" transform="translate(-84.39 -241.46)"/><path class="cls-2" d="M198.79,262.7l2.72,2.21a3.5,3.5,0,1,1-4.64-5.13Z" transform="translate(-84.39 -241.46)"/><path class="cls-6" d="M267.41,281.7s8.26-15.24,16.14-21c0,0-.25-3.62-4.87,0a51.89,51.89,0,0,0-8.75,9.55s-3.87-16.17-18.25-4.92c0,0-3.87-11.73-8.87-16.35l-0.25,1h-6c-5,5-8.88,16.53-8.88,16.53-14.37-11.25-18.26,4.4-18.26,4.4s-4.14-6.29-8.77-9.92-4.91-.22-4.91-0.22c7.88,5.75,16,20.7,16,20.7" transform="translate(-84.39 -241.46)"/><path class="cls-5" d="M214.76,280s-6.72-10.43,1.41-14.8,13.41,10.61,13.41,10.61Z" transform="translate(-84.39 -241.46)"/><path class="cls-5" d="M233,275.71l-3.46-6.94s3.47-14.32,9.79-19.44c0,0,6.9,6.13,9.79,19l-3,7.26" transform="translate(-84.39 -241.46)"/><path class="cls-7" d="M207.38,284.72l3,7.82a1.51,1.51,0,0,0,1.88.89c17.37-6.09,33.8-8.41,55,.39,0,0,2,.42,2.38-1s2-7.77,2-7.77Z" transform="translate(-84.39 -241.46)"/><path class="cls-5" d="M264,281s6.72-10.43-1.41-14.8-13.41,10.61-13.41,10.61Z" transform="translate(-84.39 -241.46)"/><path class="cls-6" d="M212.56,292.8a57.36,57.36,0,0,1,54.3,0,1.11,1.11,0,0,0,1.53-.51l3.42-7.36a1.1,1.1,0,0,0-.46-1.43c-5.32-3-33.79-17.24-63.54,0a1.12,1.12,0,0,0-.44,1.47l3.67,7.33A1.1,1.1,0,0,0,212.56,292.8Z" transform="translate(-84.39 -241.46)"/><path class="cls-8" d="M249.64,276.09" transform="translate(-84.39 -241.46)"/><circle class="cls-2" cx="155.16" cy="3.94" r="3.94"/><path class="cls-2" d="M195.79,260.71" transform="translate(-84.39 -241.46)"/><path class="cls-9" d="M207.63,283.62c-0.2.12,25.9-17.72,63.37-.29C271,283.33,239.61,263.67,207.63,283.62Z" transform="translate(-84.39 -241.46)"/><path class="cls-10" d="M229,280.12" transform="translate(-84.39 -241.46)"/><path class="cls-11" d="M229,280" transform="translate(-84.39 -241.46)"/><path class="cls-11" d="M230.67,280.12" transform="translate(-84.39 -241.46)"/><path class="cls-11" d="M229.14,279.74" transform="translate(-84.39 -241.46)"/><circle class="cls-2" cx="147.17" cy="39.68" r="2.78"/><path class="cls-12" d="M228.92,280.24c0.22-.06,2.59-2.91,5.26,0a2.68,2.68,0,0,0-2.63-1.89,2.73,2.73,0,0,0-2.65,1.93" transform="translate(-84.39 -241.46)"/><circle class="cls-2" cx="163.17" cy="39.68" r="2.78"/><path class="cls-12" d="M244.92,280.24c0.22-.06,2.59-2.91,5.26,0a2.68,2.68,0,0,0-2.63-1.89,2.73,2.73,0,0,0-2.65,1.93" transform="translate(-84.39 -241.46)"/><circle class="cls-2" cx="130.83" cy="43.76" r="2.78"/><path class="cls-12" d="M212.51,285.86c0,0.05.6-2.46,1.81-3.27a2.72,2.72,0,0,0-1.89,2.63A3,3,0,0,0,212.51,285.86Z" transform="translate(-84.39 -241.46)"/><circle class="cls-2" cx="179.83" cy="43.76" r="2.78"/><path class="cls-12" d="M266.93,285.86c0,0.05-.6-2.46-1.81-3.27a2.72,2.72,0,0,1,1.89,2.63A3,3,0,0,1,266.93,285.86Z" transform="translate(-84.39 -241.46)"/><path class="cls-12" d="M195.88,260.71a8.2,8.2,0,0,0,0,3.92A3.49,3.49,0,0,1,195.88,260.71Z" transform="translate(-84.39 -241.46)"/><path class="cls-9" d="M283.35,260.85a7.16,7.16,0,0,1,.37,4.18A3.57,3.57,0,0,0,283.35,260.85Z" transform="translate(-84.39 -241.46)"/><path class="cls-9" d="M226.79,245.68" transform="translate(-84.39 -241.46)"/><path class="cls-13" d="M236.64,243.92s2.91-4,5.78,0" transform="translate(-84.39 -241.46)"/><path d="M239.36,249.33s-6.82,9.9-9.79,19.44C229.58,268.77,232.75,254.88,239.36,249.33Z" transform="translate(-84.39 -241.46)"/><path d="M239.36,249.33a70.29,70.29,0,0,1,9.79,19S246.9,256.31,239.36,249.33Z" transform="translate(-84.39 -241.46)"/><path class="cls-14" d="M231.67,267.2c0.32-.76,4.92-14.31,7.4-15.4s7.48,15.4,7.48,15.4" transform="translate(-84.39 -241.46)"/><path class="cls-14" d="M253.6,270s5.94-8.31,11,0" transform="translate(-84.39 -241.46)"/><path class="cls-14" d="M224.6,269s-5.94-8.31-11,0" transform="translate(-84.39 -241.46)"/><path class="cls-14" d="M201.5,266.83c-0.21.38,0,8.78,2.54,12.48" transform="translate(-84.39 -241.46)"/><path class="cls-15" d="M277.77,268c0.21,0.39-.73,8.75-3.81,12.22" transform="translate(-84.39 -241.46)"/><path class="cls-16" d="M197.83,260s7.29,4.92,10,10.67" transform="translate(-84.39 -241.46)"/><path class="cls-16" d="M281.88,260s-7.29,4.92-10,10.67" transform="translate(-84.39 -241.46)"/><path class="cls-9" d="M201.21,319.61c-0.07.21-1.9,13.58-1.9,13.58l1.08,8.25,2.66,7.67,3.18,6.33,4.94,5.3,9,6.84,7.85,3.35,5.57,1.28,7.85,0.47,6.83-.82,7.4-2.29,7.61-4.19,5.73-4.85,6.14-8,4-9.55,1.38-8-0.34-9.68-3-10.92-7.42-10.67-10.55-7.57L251,292.8l-9.45-1.35L228.2,293l-6.54,2.62-10.89,8-8.38,11.11-1.18,4.84" transform="translate(-84.39 -241.46)"/><polygon class="cls-5" points="145.5 51.37 143.13 53.46 143.99 54.15 155.62 56.48 169.38 53.83 165.7 51.58 155.73 50.67 145.5 51.37"/><polygon class="cls-5" points="187.85 66.35 184.31 64.54 183.75 64.54 183.25 65.58 183.03 76.04 191.53 87.54 192.75 87.54 195.33 84.9 192.31 73.54 187.85 66.35"/><polygon class="cls-5" points="142.08 78.95 146.38 94.54 164.75 94.54 169.38 78.22 155.62 68.76 142.08 78.95"/><path class="cls-5" d="M207.93,308.58c0.19-.14,3-1.68,3-1.68l1.43-.42,0.27,4,0.31,2.25L212.64,317l-0.43,1.61-4.9,7-2.85,4.06-1-.49-3-3.16,6.27-16.92" transform="translate(-84.39 -241.46)"/><path class="cls-5" d="M222.64,349.13l8.13,13.31-2.91,2-5.21,3.6-3.84-1.54L208,357.16l0.71-2.6,0.76-8.61S217.89,350.69,222.64,349.13Z" transform="translate(-84.39 -241.46)"/><path class="cls-5" d="M257.89,349.63s11.07-1.16,12.68-3.69l0.35,4.76,0.66,6.53-12.8,10.15-0.45,1-7.8-5.8-0.59-.88Z" transform="translate(-84.39 -241.46)"/><g id="trazos"><path class="cls-17" d="M204,312.82c3.68-5.82,8.48-6.38,8.48-6.38V318l-8.35,12s-3.45-3.62-3.76-4l-0.61-.64S200.89,317.77,204,312.82Z" transform="translate(-84.39 -241.46)"/><path class="cls-17" d="M212.64,306.44c3-3.78,9.47-8.17,14-11,2.59-1.61,4.54-2.7,4.86-2.88,0,0,7.44-2.62,17.66,0,0.35,0.09,2.27,1.28,4.86,2.88,4.54,2.82,11,7.21,14,11" transform="translate(-84.39 -241.46)"/><path class="cls-17" d="M226.65,295l12.61,2.49H240c0.07,1,0,12.5,0,12.5l13.76,9.78,13.88-2.11" transform="translate(-84.39 -241.46)"/><path class="cls-17" d="M276.32,312.82c-3.38-6-8.82-6.38-8.82-6.38V318l8.69,12s3.69-3.62,4-4" transform="translate(-84.39 -241.46)"/><line class="cls-17" x1="169.64" y1="53.99" x2="155.61" y2="56.48"/><polyline class="cls-17" points="155.62 68.98 142.26 78.55 128.25 76.55"/><polyline class="cls-17" points="142.08 78.45 146.38 94.04 164.75 94.04 169.38 78.22"/><path class="cls-17" d="M249.55,362.11c0.33,0,8.33-12.48,8.33-12.48-0.44-3.44-8.75-13.69-8.75-13.69" transform="translate(-84.39 -241.46)"/><path class="cls-17" d="M257.89,349.63s9.92-1,12-2.85c0,0,5-5.29,6.38-16.77" transform="translate(-84.39 -241.46)"/><path class="cls-17" d="M270.64,345.84L271.32,358l-13,10.36-8.42-6.26s-6.58,1.83-19.12.33l-8.12-13.31c1-4.12,8.13-13.19,8.13-13.19" transform="translate(-84.39 -241.46)"/><path class="cls-17" d="M222.64,349.13s-8.58.4-13.17-3.19l-1,11.76L222,368.51l1.65-1.14,7.14-4.93" transform="translate(-84.39 -241.46)"/><path class="cls-17" d="M223.62,367.37c1.54,1.54,3.38,3.21,3.38,3.21" transform="translate(-84.39 -241.46)"/><path class="cls-17" d="M257,367.37" transform="translate(-84.39 -241.46)"/><line class="cls-17" x1="171.92" y1="125.92" x2="169.38" y2="129.13"/><path class="cls-17" d="M204.22,330a48.2,48.2,0,0,0,5.26,15.94" transform="translate(-84.39 -241.46)"/><circle class="cls-18" cx="155.61" cy="90.54" r="40.71"/></g><text class="cls-19" transform="translate(1.89 191.1)">TORNEO SOCCER </text><text class="cls-20" transform="translate(123.1 216.06)">2022</text></svg>